<?xml version="1.0" standalone="no"?>
<!DOCTYPE svg PUBLIC "-//W3C//DTD SVG 20010904//EN"
 "http://www.w3.org/TR/2001/REC-SVG-20010904/DTD/svg10.dtd">
<svg version="1.0" xmlns="http://www.w3.org/2000/svg"
 width="256.000000pt" height="256.000000pt" viewBox="0 0 256.000000 256.000000"
 preserveAspectRatio="xMidYMid meet">

<g transform="translate(0.000000,256.000000) scale(0.100000,-0.100000)"
fill="#000000" stroke="none">
<path d="M1445 2286 c-53 -17 -98 -40 -165 -87 -58 -39 -112 -52 -330 -79 -90
-11 -358 -14 -384 -4 -12 5 -13 10 -4 30 37 81 -136 66 -207 -18 -21 -24 -25
-40 -25 -90 0 -92 25 -111 220 -169 82 -24 201 -30 329 -16 l74 8 -28 -48
c-52 -89 -266 -417 -348 -531 -55 -77 -84 -109 -91 -102 -31 31 -103 -25 -182
-141 -41 -59 -48 -78 -52 -129 -3 -43 0 -66 11 -83 21 -32 76 -57 125 -57 23
0 44 -4 47 -10 13 -21 81 -11 121 18 83 61 142 141 344 467 141 228 351 541
417 622 45 56 99 87 198 113 82 22 155 61 155 83 1 6 3 41 5 77 6 76 -6 104
-54 137 -39 26 -110 30 -176 9z m176 -45 c80 -80 0 -156 -212 -201 -79 -17
-98 -25 -120 -50 -49 -57 -316 -456 -439 -655 -214 -347 -292 -451 -379 -507
-109 -69 -223 -6 -193 106 26 94 204 290 190 209 -2 -10 4 -19 12 -20 19 -4
167 203 370 517 83 129 168 254 187 278 19 24 33 45 31 48 -3 2 -43 -4 -89
-15 -142 -33 -244 -44 -377 -39 -197 7 -265 48 -246 145 12 62 63 104 134 111
51 5 63 -5 35 -28 -20 -17 -19 -36 3 -45 34 -14 253 -17 378 -6 71 7 175 21
231 31 86 15 111 24 152 54 85 63 168 96 239 96 57 0 67 -3 93 -29z"/>
<path d="M2240 1761 c-55 -30 -179 -140 -399 -356 -188 -184 -202 -196 -174
-145 17 30 58 105 92 166 58 105 73 155 51 169 -6 3 -2 25 10 54 16 43 17 51
4 69 -21 31 -72 43 -154 38 -57 -4 -81 -11 -114 -32 -143 -94 -555 -598 -872
-1070 -180 -266 -200 -316 -151 -362 44 -42 178 -73 209 -49 9 8 47 65 84 128
91 155 280 435 326 484 5 6 -12 -35 -37 -90 -90 -194 -98 -222 -69 -263 23
-34 61 -49 143 -56 l73 -7 200 198 199 198 -62 -121 c-50 -96 -62 -130 -62
-167 0 -82 40 -120 157 -147 60 -14 80 -15 113 -5 67 20 202 124 266 204 21
27 27 43 24 66 -2 16 -1 40 4 52 8 22 -10 148 -25 172 -12 19 -54 12 -70 -11
-9 -12 -16 -19 -16 -14 0 11 149 227 315 456 189 261 180 246 166 276 -10 22
-8 31 9 59 40 64 21 85 -102 108 -104 20 -95 20 -138 -2z m132 -22 c29 -6 63
-13 76 -15 12 -2 22 -11 22 -20 0 -9 -60 -98 -133 -197 -304 -414 -577 -823
-577 -865 0 -26 83 32 187 132 57 54 106 97 109 94 2 -3 9 -34 15 -68 9 -60 9
-64 -18 -102 -70 -102 -300 -267 -371 -268 -63 0 -122 57 -122 118 0 16 20 70
44 118 43 86 253 412 395 613 37 53 71 103 76 111 10 19 50 59 -352 -360 -396
-412 -530 -546 -560 -555 -29 -8 -86 19 -102 48 -10 19 -9 32 8 74 25 63 167
347 265 531 40 75 90 169 111 207 l37 70 -43 -49 c-220 -248 -529 -674 -665
-916 -26 -47 -58 -104 -71 -127 -28 -50 -52 -54 -120 -23 -79 36 -71 63 90
305 312 467 705 957 881 1097 35 28 58 38 85 39 20 0 57 1 82 1 49 1 89 -15
89 -35 0 -7 -103 -199 -230 -427 -126 -228 -230 -418 -230 -422 0 -5 33 29 73
74 228 260 665 700 776 782 68 50 85 53 173 35z"/>
</g>
</svg>
